{
  "source": "C:\\Users\\Peter\\Desktop\\stuff\\MIUN\\quantitative_research\\video_compression\\videos\\HEVC_CLASS_B\\Cactus_1920x1080_50.y4m",
  "output": "C:\\Users\\Peter\\Desktop\\stuff\\MIUN\\quantitative_research\\video_compression\\compressed_videos\\HEVC_CLASS_B\\h264\\2\\Cactus_1920x1080_50_h264.mp4",
  "codec": "h264",
  "ok": "Input #0, yuv4mpegpipe, from 'C:\\Users\\Peter\\Desktop\\stuff\\MIUN\\quantitative_research\\video_compression\\videos\\HEVC_CLASS_B\\Cactus_1920x1080_50.y4m':\n  Duration: 00:00:10.00, start: 0.000000, bitrate: 1244162 kb/s\n  Stream #0:0: Video: rawvideo (I420 / 0x30323449), yuv420p(progressive), 1920x1080, 50 fps, 50 tbr, 50 tbn\n[out#0/mp4 @ 00000241ecb29880] Codec AVOption b:a (set bitrate (in bits/s)) has not been used for any stream. The most likely reason is either wrong type (e.g. a video option with no video streams) or that it is a private option of some decoder which was not actually used for any stream.\nStream mapping:\n  Stream #0:0 -> #0:0 (rawvideo (native) -> h264 (libx264))\nPress [q] to stop, [?] for help\n[libx264 @ 00000241ecb2c8c0] using cpu capabilities: MMX2 SSE2Fast SSSE3 SSE4.2 AVX FMA3 BMI2 AVX2\n[libx264 @ 00000241ecb2c8c0] profile High, level 5.0, 4:2:0, 8-bit\n[libx264 @ 00000241ecb2c8c0] 264 - core 165 r3222 b35605a - H.264/MPEG-4 AVC codec - Copyleft 2003-2025 - http://www.videolan.org/x264.html - options: cabac=1 ref=5 deblock=1:0:0 analyse=0x3:0x113 me=hex subme=8 psy=1 psy_rd=1.00:0.00 mixed_ref=1 me_range=16 chroma_me=1 trellis=2 8x8dct=1 cqm=0 deadzone=21,11 fast_pskip=1 chroma_qp_offset=-2 threads=18 lookahead_threads=3 sliced_threads=0 nr=0 decimate=1 interlaced=0 bluray_compat=0 constrained_intra=0 bframes=3 b_pyramid=2 b_adapt=1 b_bias=0 direct=3 weightb=1 open_gop=0 weightp=2 keyint=250 keyint_min=25 scenecut=40 intra_refresh=0 rc_lookahead=50 rc=cbr mbtree=1 bitrate=2000 ratetol=1.0 qcomp=0.60 qpmin=0 qpmax=69 qpstep=4 vbv_maxrate=2000 vbv_bufsize=2000 nal_hrd=none filler=0 ip_ratio=1.40 aq=1:1.00\nOutput #0, mp4, to 'C:\\Users\\Peter\\Desktop\\stuff\\MIUN\\quantitative_research\\video_compression\\compressed_videos\\HEVC_CLASS_B\\h264\\2\\Cactus_1920x1080_50_h264.mp4':\n  Metadata:\n    encoder         : Lavf62.3.100\n  Stream #0:0: Video: h264 (avc1 / 0x31637661), yuv420p(tv, progressive), 1920x1080, q=2-31, 2000 kb/s, 50 fps, 12800 tbn\n    Metadata:\n      encoder         : Lavc62.11.100 libx264\n    Side data:\n      cpb: bitrate max/min/avg: 2000000/0/2000000 buffer size: 2000000 vbv_delay: N/A\nframe=    0 fps=0.0 q=0.0 size=       0KiB time=N/A bitrate=N/A speed=N/A elapsed=0:00:00.51    \nframe=    8 fps=7.7 q=46.0 size=       0KiB time=00:00:00.12 bitrate=   3.2kbits/s speed=0.116x elapsed=0:00:01.03    \nframe=   41 fps= 26 q=43.0 size=       0KiB time=00:00:00.78 bitrate=   0.5kbits/s speed=0.498x elapsed=0:00:01.56    \nframe=   80 fps= 38 q=42.0 size=     256KiB time=00:00:01.48 bitrate=1417.3kbits/s speed=0.697x elapsed=0:00:02.12    \nframe=  115 fps= 43 q=42.0 size=     256KiB time=00:00:02.08 bitrate=1008.4kbits/s speed=0.772x elapsed=0:00:02.69    \nframe=  148 fps= 45 q=42.0 size=     512KiB time=00:00:02.92 bitrate=1436.5kbits/s speed=0.889x elapsed=0:00:03.28    \nframe=  186 fps= 48 q=41.0 size=     512KiB time=00:00:03.56 bitrate=1178.3kbits/s speed=0.926x elapsed=0:00:03.84    \nframe=  213 fps= 48 q=41.0 size=     768KiB time=00:00:04.22 bitrate=1491.0kbits/s speed=0.947x elapsed=0:00:04.45    \nframe=  233 fps= 47 q=41.0 size=     768KiB time=00:00:04.62 bitrate=1361.9kbits/s speed=0.93x elapsed=0:00:04.96    \nframe=  266 fps= 48 q=42.0 size=    1024KiB time=00:00:05.20 bitrate=1613.3kbits/s speed=0.942x elapsed=0:00:05.51    \nframe=  302 fps= 49 q=42.0 size=    1280KiB time=00:00:06.00 bitrate=1747.7kbits/s speed=0.982x elapsed=0:00:06.10    \nframe=  341 fps= 51 q=42.0 size=    1280KiB time=00:00:06.74 bitrate=1555.8kbits/s speed=1.01x elapsed=0:00:06.68    \nframe=  373 fps= 51 q=42.0 size=    1536KiB time=00:00:07.40 bitrate=1700.4kbits/s speed=1.02x elapsed=0:00:07.25    \nframe=  410 fps= 53 q=41.0 size=    1536KiB time=00:00:08.08 bitrate=1557.3kbits/s speed=1.04x elapsed=0:00:07.78    \nframe=  447 fps= 54 q=41.0 size=    1792KiB time=00:00:08.78 bitrate=1672.0kbits/s speed=1.05x elapsed=0:00:08.34    \nframe=  495 fps= 55 q=-1.0 size=    2048KiB time=00:00:09.80 bitrate=1712.0kbits/s speed= 1.1x elapsed=0:00:08.93    \n[mp4 @ 00000241ecb29980] Starting second pass: moving the moov atom to the beginning of the file\n[out#0/mp4 @ 00000241ecb29880] video:2196KiB audio:0KiB subtitle:0KiB other streams:0KiB global headers:0KiB muxing overhead: 0.306250%\nframe=  500 fps= 55 q=-1.0 Lsize=    2203KiB time=00:00:09.96 bitrate=1811.8kbits/s speed=1.11x elapsed=0:00:09.01    \n[libx264 @ 00000241ecb2c8c0] frame I:2     Avg QP:37.86  size: 54488\n[libx264 @ 00000241ecb2c8c0] frame P:126   Avg QP:40.15  size:  9634\n[libx264 @ 00000241ecb2c8c0] frame B:372   Avg QP:43.99  size:  2487\n[libx264 @ 00000241ecb2c8c0] consecutive B-frames:  0.8%  0.0%  0.0% 99.2%\n[libx264 @ 00000241ecb2c8c0] mb I  I16..4: 30.6% 59.0% 10.4%\n[libx264 @ 00000241ecb2c8c0] mb P  I16..4:  2.2%  2.2%  0.1%  P16..4: 25.2%  3.6%  4.1%  0.0%  0.0%    skip:62.6%\n[libx264 @ 00000241ecb2c8c0] mb B  I16..4:  0.1%  0.1%  0.0%  B16..8: 22.6%  0.5%  0.0%  direct: 0.2%  skip:76.3%  L0:37.1% L1:62.3% BI: 0.6%\n[libx264 @ 00000241ecb2c8c0] 8x8 transform intra:51.8% inter:88.6%\n[libx264 @ 00000241ecb2c8c0] direct mvs  spatial:97.3% temporal:2.7%\n[libx264 @ 00000241ecb2c8c0] coded y,uvDC,uvAC intra: 26.0% 38.8% 8.6% inter: 2.0% 2.6% 0.0%\n[libx264 @ 00000241ecb2c8c0] i16 v,h,dc,p: 25% 26%  6% 43%\n[libx264 @ 00000241ecb2c8c0] i8 v,h,dc,ddl,ddr,vr,hd,vl,hu:  8%  4%  8% 13% 18% 15% 13% 12%  9%\n[libx264 @ 00000241ecb2c8c0] i4 v,h,dc,ddl,ddr,vr,hd,vl,hu: 12%  7%  9% 12% 15% 14% 10% 10% 11%\n[libx264 @ 00000241ecb2c8c0] i8c dc,h,v,p: 49% 24% 14% 12%\n[libx264 @ 00000241ecb2c8c0] Weighted P-Frames: Y:0.0% UV:0.0%\n[libx264 @ 00000241ecb2c8c0] ref P L0: 60.5% 10.7% 17.4%  4.9%  6.6%\n[libx264 @ 00000241ecb2c8c0] ref B L0: 88.0%  8.3%  2.8%  1.0%\n[libx264 @ 00000241ecb2c8c0] ref B L1: 96.7%  3.3%\n[libx264 @ 00000241ecb2c8c0] kb/s:1798.44\n",
  "seconds": 9.182703495025635,
  "probe_out": {}
}